<?xml version="1.0" encoding="UTF-8" standalone="no"?>
<svg xmlns="http://www.w3.org/2000/svg" width="512" height="512" viewBox="0 0 512 512">
  <!-- Background circle -->
  <circle cx="256" cy="256" r="256" fill="#4CAF50" />
  
  <!-- Solar panel -->
  <g transform="translate(106, 126)">
    <!-- Panel frame -->
    <rect x="0" y="0" width="300" height="260" rx="10" ry="10" fill="#263238" />
    
    <!-- Panel cells -->
    <g fill="#ffffff" opacity="0.85">
      <!-- Row 1 -->
      <rect x="20" y="20" width="60" height="60" rx="2" ry="2" />
      <rect x="90" y="20" width="60" height="60" rx="2" ry="2" />
      <rect x="160" y="20" width="60" height="60" rx="2" ry="2" />
      <rect x="230" y="20" width="50" height="60" rx="2" ry="2" />
      
      <!-- Row 2 -->
      <rect x="20" y="90" width="60" height="60" rx="2" ry="2" />
      <rect x="90" y="90" width="60" height="60" rx="2" ry="2" />
      <rect x="160" y="90" width="60" height="60" rx="2" ry="2" />
      <rect x="230" y="90" width="50" height="60" rx="2" ry="2" />
      
      <!-- Row 3 -->
      <rect x="20" y="160" width="60" height="60" rx="2" ry="2" />
      <rect x="90" y="160" width="60" height="60" rx="2" ry="2" />
      <rect x="160" y="160" width="60" height="60" rx="2" ry="2" />
      <rect x="230" y="160" width="50" height="60" rx="2" ry="2" />
    </g>
    
    <!-- Reflection highlights -->
    <g fill="#ffffff" opacity="0.15">
      <polygon points="20,20 80,20 50,40" />
      <polygon points="90,20 150,20 120,40" />
      <polygon points="160,20 220,20 190,40" />
      <polygon points="230,20 280,20 255,40" />
    </g>
  </g>
  
  <!-- Sun rays -->
  <g transform="translate(256, 256)" fill="#FFC107" opacity="0.85">
    <circle cx="0" cy="-170" r="15" />
    <rect x="-8" y="-210" width="16" height="30" rx="8" ry="8" />
    
    <g transform="rotate(30)">
      <circle cx="0" cy="-170" r="10" />
      <rect x="-6" y="-200" width="12" height="20" rx="6" ry="6" />
    </g>
    
    <g transform="rotate(60)">
      <circle cx="0" cy="-170" r="10" />
      <rect x="-6" y="-200" width="12" height="20" rx="6" ry="6" />
    </g>
    
    <g transform="rotate(-30)">
      <circle cx="0" cy="-170" r="10" />
      <rect x="-6" y="-200" width="12" height="20" rx="6" ry="6" />
    </g>
    
    <g transform="rotate(-60)">
      <circle cx="0" cy="-170" r="10" />
      <rect x="-6" y="-200" width="12" height="20" rx="6" ry="6" />
    </g>
  </g>
  
  <!-- QR code element to represent the app function -->
  <g transform="translate(256, 355)" fill="#ffffff">
    <rect x="-45" y="-30" width="90" height="60" rx="5" ry="5" />
    
    <!-- Simplified QR code pattern inside -->
    <g fill="#263238">
      <rect x="-35" y="-20" width="10" height="10" />
      <rect x="-15" y="-20" width="10" height="10" />
      <rect x="5" y="-20" width="10" height="10" />
      <rect x="25" y="-20" width="10" height="10" />
      
      <rect x="-35" y="0" width="10" height="10" />
      <rect x="-15" y="0" width="10" height="10" />
      <rect x="5" y="0" width="10" height="10" />
      <rect x="25" y="0" width="10" height="10" />
    </g>
  </g>
</svg>