<?xml version="1.0" encoding="UTF-8" standalone="no"?>
<svg xmlns="http://www.w3.org/2000/svg" width="512" height="512" viewBox="0 0 512 512">
  <!-- Background circle -->
  <circle cx="256" cy="256" r="256" fill="#4CAF50" />
  
  <!-- Solar panel -->
  <g transform="translate(126, 136)">
    <!-- Panel frame -->
    <rect x="0" y="0" width="260" height="220" rx="20" ry="20" fill="#263238" />
    
    <!-- Panel cells -->
    <g fill="#ffffff" opacity="0.85">
      <!-- Row 1 -->
      <rect x="20" y="20" width="50" height="50" rx="2" ry="2" />
      <rect x="80" y="20" width="50" height="50" rx="2" ry="2" />
      <rect x="140" y="20" width="50" height="50" rx="2" ry="2" />
      <rect x="200" y="20" width="40" height="50" rx="2" ry="2" />
      
      <!-- Row 2 -->
      <rect x="20" y="80" width="50" height="50" rx="2" ry="2" />
      <rect x="80" y="80" width="50" height="50" rx="2" ry="2" />
      <rect x="140" y="80" width="50" height="50" rx="2" ry="2" />
      <rect x="200" y="80" width="40" height="50" rx="2" ry="2" />
      
      <!-- Row 3 -->
      <rect x="20" y="140" width="50" height="50" rx="2" ry="2" />
      <rect x="80" y="140" width="50" height="50" rx="2" ry="2" />
      <rect x="140" y="140" width="50" height="50" rx="2" ry="2" />
      <rect x="200" y="140" width="40" height="50" rx="2" ry="2" />
    </g>
    
    <!-- Reflection highlights -->
    <g fill="#ffffff" opacity="0.15">
      <polygon points="20,20 70,20 45,35" />
      <polygon points="80,20 130,20 105,35" />
      <polygon points="140,20 190,20 165,35" />
      <polygon points="200,20 240,20 220,35" />
    </g>
  </g>
  
  <!-- Sun rays -->
  <g transform="translate(256, 256)" fill="#FFC107" opacity="0.85">
    <circle cx="0" cy="-160" r="15" />
    <rect x="-8" y="-200" width="16" height="30" rx="8" ry="8" />
    
    <g transform="rotate(30)">
      <circle cx="0" cy="-160" r="10" />
      <rect x="-6" y="-190" width="12" height="20" rx="6" ry="6" />
    </g>
    
    <g transform="rotate(60)">
      <circle cx="0" cy="-160" r="10" />
      <rect x="-6" y="-190" width="12" height="20" rx="6" ry="6" />
    </g>
    
    <g transform="rotate(-30)">
      <circle cx="0" cy="-160" r="10" />
      <rect x="-6" y="-190" width="12" height="20" rx="6" ry="6" />
    </g>
    
    <g transform="rotate(-60)">
      <circle cx="0" cy="-160" r="10" />
      <rect x="-6" y="-190" width="12" height="20" rx="6" ry="6" />
    </g>
  </g>
  
  <!-- QR code element to represent the app function -->
  <g transform="translate(256, 345)" fill="#ffffff">
    <rect x="-35" y="-25" width="70" height="50" rx="8" ry="8" />
    
    <!-- Simplified QR code pattern inside -->
    <g fill="#263238">
      <rect x="-25" y="-15" width="8" height="8" />
      <rect x="-10" y="-15" width="8" height="8" />
      <rect x="5" y="-15" width="8" height="8" />
      <rect x="20" y="-15" width="8" height="8" />
      
      <rect x="-25" y="0" width="8" height="8" />
      <rect x="-10" y="0" width="8" height="8" />
      <rect x="5" y="0" width="8" height="8" />
      <rect x="20" y="0" width="8" height="8" />
    </g>
  </g>
</svg>